<svg width="24" height="24" viewBox="-2 -2 24 24" fill="none" xmlns="http://www.w3.org/2000/svg">
<path d="M15.5794 16.767H4.09267C3.89126 16.767 3.72804 16.6079 3.72804 16.4116V8.44794C3.72804 4.97908 6.55121 2.16698 10.0339 2.16698C13.5165 2.16698 15.9441 4.97908 15.9441 8.44794V7.97196C15.944 3.56916 12.3749 0 7.97207 0C3.56927 0 0 3.56916 0 7.97207V19.4855C0 19.7696 0.230353 20 0.514504 20H15.9441V16.7708L15.5795 16.7671L15.5794 16.767Z" fill="url(#tabLoungeGrad)"/>
<path d="M19.9257 12.3307C16.7009 11.8274 16.506 11.6326 16.0026 8.40763C15.9871 8.30857 15.8444 8.30857 15.8291 8.40763C15.3273 11.6324 15.1324 11.8273 11.9076 12.3305C11.8086 12.346 11.8086 12.4887 11.9076 12.5041C15.1324 13.006 15.3272 13.2007 15.8291 16.4255C15.8446 16.5246 15.9871 16.5247 16.0026 16.4255C16.506 13.2007 16.7007 13.0058 19.9257 12.5041C20.0247 12.4886 20.0249 12.346 19.9257 12.3305V12.3307Z" fill="#7700FF"/>
<defs>
<linearGradient id="tabLoungeGrad" x1="0" y1="10" x2="15.9441" y2="10" gradientUnits="userSpaceOnUse">
<stop offset="0.4" stop-color="#5F2EFF"/>
<stop offset="1" stop-color="#8C2EFF"/>
</linearGradient>
</defs>
</svg>
